<svg xmlns="http://www.w3.org/2000/svg" viewBox="0 0 32 32">
  <rect width="32" height="32" rx="6" fill="#1a1a1a"/>
  <!-- Row 1: Purple -->
  <rect x="3" y="3" width="5.5" height="5.5" rx="1" fill="#7B2D8B"/>
  <rect x="10" y="3" width="5.5" height="5.5" rx="1" fill="#7B2D8B"/>
  <rect x="17" y="3" width="5.5" height="5.5" rx="1" fill="#7B2D8B"/>
  <rect x="24" y="3" width="5.5" height="5.5" rx="1" fill="#7B2D8B"/>
  <!-- Row 2: Lilac -->
  <rect x="3" y="10" width="5.5" height="5.5" rx="1" fill="#9BADE5"/>
  <rect x="10" y="10" width="5.5" height="5.5" rx="1" fill="#9BADE5"/>
  <rect x="17" y="10" width="5.5" height="5.5" rx="1" fill="#9BADE5"/>
  <rect x="24" y="10" width="5.5" height="5.5" rx="1" fill="#9BADE5"/>
  <!-- Row 3: Yellow -->
  <rect x="3" y="17" width="5.5" height="5.5" rx="1" fill="#F9DF6D"/>
  <rect x="10" y="17" width="5.5" height="5.5" rx="1" fill="#F9DF6D"/>
  <rect x="17" y="17" width="5.5" height="5.5" rx="1" fill="#F9DF6D"/>
  <rect x="24" y="17" width="5.5" height="5.5" rx="1" fill="#F9DF6D"/>
  <!-- Row 4: Green -->
  <rect x="3" y="24" width="5.5" height="5.5" rx="1" fill="#A0C35A"/>
  <rect x="10" y="24" width="5.5" height="5.5" rx="1" fill="#A0C35A"/>
  <rect x="17" y="24" width="5.5" height="5.5" rx="1" fill="#A0C35A"/>
  <rect x="24" y="24" width="5.5" height="5.5" rx="1" fill="#A0C35A"/>
</svg>
